<svg xmlns="http://www.w3.org/2000/svg" width="400" height="400" viewBox="0 0 400 400">
  <defs>
    <linearGradient id="grad" x1="0%" y1="0%" x2="100%" y2="100%">
      <stop offset="0%" style="stop-color:#16a34a;stop-opacity:1" />
      <stop offset="100%" style="stop-color:#9333ea;stop-opacity:1" />
    </linearGradient>
  </defs>
  <rect width="400" height="400" fill="url(#grad)"/>
  <g fill="white" fill-opacity="0.9" transform="translate(140, 130)">
    <path d="M60 0C26.9 0 0 26.9 0 60s26.9 60 60 60 60-26.9 60-60S93.1 0 60 0zm0 108c-26.5 0-48-21.5-48-48s21.5-48 48-48 48 21.5 48 48-21.5 48-48 48z"/>
    <path d="M60 24c-19.9 0-36 16.1-36 36s16.1 36 36 36 36-16.1 36-36-16.1-36-36-36zm-12 54V42l30 18-30 18z"/>
  </g>
  <text x="200" y="320" text-anchor="middle" fill="white" fill-opacity="0.8" font-family="system-ui, sans-serif" font-size="18" font-weight="500">
    Audio
  </text>
</svg>
